<svg width="710" height="400" viewBox="0 0 710 400" fill="none" xmlns="http://www.w3.org/2000/svg">
<g clip-path="url(#clip0_3_848)">
<g filter="url(#filter0_dii_3_848)">
<path d="M497.917 190.621C497.775 207.3 502.594 223.646 511.761 237.581C520.929 251.516 534.031 262.412 549.404 268.885C564.776 275.358 581.726 277.117 598.101 273.937C614.475 270.756 629.534 262.782 641.367 251.025C653.199 239.268 661.27 224.26 664.555 207.906C667.84 191.553 666.19 174.592 659.816 159.178C653.441 143.764 642.629 130.592 628.753 121.336C614.877 112.079 598.563 107.156 581.883 107.191C559.692 107.143 538.388 115.901 522.647 131.542C506.905 147.183 498.011 168.43 497.917 190.621Z" fill="#A0FFD5"/>
</g>
<path d="M591.887 322.465L601.534 386.423H613.325L631.19 291.201H532.575L550.44 386.423H562.052L572.235 322.465L562.588 304.6H600.998L591.351 322.465H591.887Z" fill="white"/>
<g filter="url(#filter1_dii_3_848)">
<path d="M44.1427 190.621C44.0011 207.293 48.8155 223.631 57.9749 237.562C67.1344 251.493 80.2259 262.39 95.5884 268.868C110.951 275.346 127.892 277.115 144.261 273.949C160.63 270.784 175.69 262.827 187.529 251.088C199.369 239.349 207.454 224.358 210.759 208.016C214.064 191.674 212.44 174.719 206.093 159.302C199.746 143.885 188.962 130.701 175.109 121.423C161.257 112.145 144.96 107.191 128.287 107.191C106.08 107.143 84.7578 115.895 68.9878 131.531C53.2178 147.167 44.2844 168.414 44.1427 190.621Z" fill="#A0FFD5"/>
</g>
<g filter="url(#filter2_dii_3_848)">
<path d="M529.18 400V348.191C537.341 364.271 541.797 381.973 542.222 400H709.618V361.59C709.618 351.22 707.576 340.952 703.607 331.372C699.639 321.792 693.823 313.087 686.49 305.754C679.158 298.422 670.453 292.605 660.872 288.637C651.292 284.669 641.024 282.626 630.654 282.626H533.289C525.343 282.681 517.451 283.946 509.886 286.378C499.939 271.913 486.591 260.112 471.016 252.013C455.441 243.914 438.115 239.764 420.561 239.929H288.716C271.36 239.85 254.244 243.988 238.841 251.985C223.437 259.983 210.205 271.601 200.284 285.842C192.722 283.397 184.828 282.131 176.88 282.09H79.5154C69.1005 282.09 58.7884 284.15 49.173 288.152C39.5576 292.154 30.8288 298.018 23.4892 305.407C16.1497 312.797 10.3445 321.565 6.40786 331.207C2.47122 340.85 0.480934 351.175 0.551624 361.59V400H168.305C168.698 382.182 173.03 364.673 180.989 348.727V400H529.18ZM537.934 291.023H631.369L613.504 386.244H601.713L592.066 322.287L601.713 304.422H562.767L572.414 322.287L562.588 386.244H550.976L533.111 291.023H537.934ZM294.969 251.362H415.201H422.526L397.693 381.063H312.477L287.644 251.362H294.969ZM159.551 386.423H147.939L138.113 322.465L147.76 304.6H109.172L118.64 322.465L108.993 386.423H97.0233L79.1581 291.201H177.774L159.551 386.423Z" fill="#A0FFD5"/>
</g>
<path d="M138.113 322.465L147.939 386.423H159.551L177.416 291.201H78.8008L96.6659 386.423H108.278L117.925 322.465L108.457 304.6H147.403L137.756 322.465H138.113Z" fill="white"/>
<g filter="url(#filter3_dii_3_848)">
<path d="M240.48 114.515C240.445 137.207 247.141 159.4 259.723 178.285C272.304 197.169 290.204 211.898 311.159 220.606C332.113 229.315 355.18 231.611 377.44 227.206C399.7 222.801 420.154 211.891 436.212 195.858C452.27 179.825 463.211 159.389 467.651 137.136C472.091 114.882 469.83 91.8119 461.155 70.8439C452.479 49.8759 437.779 31.9526 418.913 19.3419C400.048 6.73125 377.866 2.95649e-05 355.174 2.03708e-06C340.121 -0.0234822 325.21 2.92122 311.296 8.66564C297.382 14.4101 284.737 22.8415 274.084 33.4776C263.431 44.1136 254.98 56.7457 249.214 70.651C243.448 84.5563 240.48 99.462 240.48 114.515Z" fill="#A0FFD5"/>
</g>
<path d="M368.573 294.238L381.972 381.42H397.693L422.526 251.72H415.201H294.969H287.644L312.477 381.42H328.377L341.597 294.238L328.555 270.299H380.721L367.68 294.238H368.573Z" fill="white"/>
<g filter="url(#filter4_dii_3_848)">
<path d="M328.376 381.599H381.793L368.573 294.239H368.216L381.257 270.299H329.091L342.133 294.239H341.597L328.376 381.599Z" fill="#57C091"/>
</g>
</g>
<defs>
<filter id="filter0_dii_3_848" x="488.914" y="98.1905" width="192.29" height="193.289" filterUnits="userSpaceOnUse" color-interpolation-filters="sRGB">
<feFlood flood-opacity="0" result="BackgroundImageFix"/>
<feColorMatrix in="SourceAlpha" type="matrix" values="0 0 0 0 0 0 0 0 0 0 0 0 0 0 0 0 0 0 127 0" result="hardAlpha"/>
<feOffset dx="6" dy="6"/>
<feGaussianBlur stdDeviation="4"/>
<feComposite in2="hardAlpha" operator="out"/>
<feColorMatrix type="matrix" values="0 0 0 0 0.0235294 0 0 0 0 0.478431 0 0 0 0 0.27451 0 0 0 0.3 0"/>
<feBlend mode="normal" in2="BackgroundImageFix" result="effect1_dropShadow_3_848"/>
<feBlend mode="normal" in="SourceGraphic" in2="effect1_dropShadow_3_848" result="shape"/>
<feColorMatrix in="SourceAlpha" type="matrix" values="0 0 0 0 0 0 0 0 0 0 0 0 0 0 0 0 0 0 127 0" result="hardAlpha"/>
<feOffset dx="-10" dy="-11"/>
<feGaussianBlur stdDeviation="4.5"/>
<feComposite in2="hardAlpha" operator="arithmetic" k2="-1" k3="1"/>
<feColorMatrix type="matrix" values="0 0 0 0 0.0235294 0 0 0 0 0.478431 0 0 0 0 0.27451 0 0 0 0.5 0"/>
<feBlend mode="normal" in2="shape" result="effect2_innerShadow_3_848"/>
<feColorMatrix in="SourceAlpha" type="matrix" values="0 0 0 0 0 0 0 0 0 0 0 0 0 0 0 0 0 0 127 0" result="hardAlpha"/>
<feOffset dx="15" dy="16"/>
<feGaussianBlur stdDeviation="9.5"/>
<feComposite in2="hardAlpha" operator="arithmetic" k2="-1" k3="1"/>
<feColorMatrix type="matrix" values="0 0 0 0 0.0235294 0 0 0 0 0.478431 0 0 0 0 0.27451 0 0 0 0.4 0"/>
<feBlend mode="normal" in2="effect2_innerShadow_3_848" result="effect3_innerShadow_3_848"/>
</filter>
<filter id="filter1_dii_3_848" x="35.1396" y="98.1905" width="192.29" height="193.29" filterUnits="userSpaceOnUse" color-interpolation-filters="sRGB">
<feFlood flood-opacity="0" result="BackgroundImageFix"/>
<feColorMatrix in="SourceAlpha" type="matrix" values="0 0 0 0 0 0 0 0 0 0 0 0 0 0 0 0 0 0 127 0" result="hardAlpha"/>
<feOffset dx="6" dy="6"/>
<feGaussianBlur stdDeviation="4"/>
<feComposite in2="hardAlpha" operator="out"/>
<feColorMatrix type="matrix" values="0 0 0 0 0.0235294 0 0 0 0 0.478431 0 0 0 0 0.27451 0 0 0 0.3 0"/>
<feBlend mode="normal" in2="BackgroundImageFix" result="effect1_dropShadow_3_848"/>
<feBlend mode="normal" in="SourceGraphic" in2="effect1_dropShadow_3_848" result="shape"/>
<feColorMatrix in="SourceAlpha" type="matrix" values="0 0 0 0 0 0 0 0 0 0 0 0 0 0 0 0 0 0 127 0" result="hardAlpha"/>
<feOffset dx="-10" dy="-11"/>
<feGaussianBlur stdDeviation="4.5"/>
<feComposite in2="hardAlpha" operator="arithmetic" k2="-1" k3="1"/>
<feColorMatrix type="matrix" values="0 0 0 0 0.0235294 0 0 0 0 0.478431 0 0 0 0 0.27451 0 0 0 0.5 0"/>
<feBlend mode="normal" in2="shape" result="effect2_innerShadow_3_848"/>
<feColorMatrix in="SourceAlpha" type="matrix" values="0 0 0 0 0 0 0 0 0 0 0 0 0 0 0 0 0 0 127 0" result="hardAlpha"/>
<feOffset dx="15" dy="16"/>
<feGaussianBlur stdDeviation="9.5"/>
<feComposite in2="hardAlpha" operator="arithmetic" k2="-1" k3="1"/>
<feColorMatrix type="matrix" values="0 0 0 0 0.0235294 0 0 0 0 0.478431 0 0 0 0 0.27451 0 0 0 0.4 0"/>
<feBlend mode="normal" in2="effect2_innerShadow_3_848" result="effect3_innerShadow_3_848"/>
</filter>
<filter id="filter2_dii_3_848" x="-8.4502" y="230.924" width="733.068" height="185.076" filterUnits="userSpaceOnUse" color-interpolation-filters="sRGB">
<feFlood flood-opacity="0" result="BackgroundImageFix"/>
<feColorMatrix in="SourceAlpha" type="matrix" values="0 0 0 0 0 0 0 0 0 0 0 0 0 0 0 0 0 0 127 0" result="hardAlpha"/>
<feOffset dx="6" dy="6"/>
<feGaussianBlur stdDeviation="4"/>
<feComposite in2="hardAlpha" operator="out"/>
<feColorMatrix type="matrix" values="0 0 0 0 0.0235294 0 0 0 0 0.478431 0 0 0 0 0.27451 0 0 0 0.3 0"/>
<feBlend mode="normal" in2="BackgroundImageFix" result="effect1_dropShadow_3_848"/>
<feBlend mode="normal" in="SourceGraphic" in2="effect1_dropShadow_3_848" result="shape"/>
<feColorMatrix in="SourceAlpha" type="matrix" values="0 0 0 0 0 0 0 0 0 0 0 0 0 0 0 0 0 0 127 0" result="hardAlpha"/>
<feOffset dx="-10" dy="-11"/>
<feGaussianBlur stdDeviation="4.5"/>
<feComposite in2="hardAlpha" operator="arithmetic" k2="-1" k3="1"/>
<feColorMatrix type="matrix" values="0 0 0 0 0.0235294 0 0 0 0 0.478431 0 0 0 0 0.27451 0 0 0 0.5 0"/>
<feBlend mode="normal" in2="shape" result="effect2_innerShadow_3_848"/>
<feColorMatrix in="SourceAlpha" type="matrix" values="0 0 0 0 0 0 0 0 0 0 0 0 0 0 0 0 0 0 127 0" result="hardAlpha"/>
<feOffset dx="15" dy="16"/>
<feGaussianBlur stdDeviation="9.5"/>
<feComposite in2="hardAlpha" operator="arithmetic" k2="-1" k3="1"/>
<feColorMatrix type="matrix" values="0 0 0 0 0.0235294 0 0 0 0 0.478431 0 0 0 0 0.27451 0 0 0 0.4 0"/>
<feBlend mode="normal" in2="effect2_innerShadow_3_848" result="effect3_innerShadow_3_848"/>
</filter>
<filter id="filter3_dii_3_848" x="231.48" y="-9.00014" width="253.388" height="254.388" filterUnits="userSpaceOnUse" color-interpolation-filters="sRGB">
<feFlood flood-opacity="0" result="BackgroundImageFix"/>
<feColorMatrix in="SourceAlpha" type="matrix" values="0 0 0 0 0 0 0 0 0 0 0 0 0 0 0 0 0 0 127 0" result="hardAlpha"/>
<feOffset dx="6" dy="6"/>
<feGaussianBlur stdDeviation="4"/>
<feComposite in2="hardAlpha" operator="out"/>
<feColorMatrix type="matrix" values="0 0 0 0 0.0235294 0 0 0 0 0.478431 0 0 0 0 0.27451 0 0 0 0.3 0"/>
<feBlend mode="normal" in2="BackgroundImageFix" result="effect1_dropShadow_3_848"/>
<feBlend mode="normal" in="SourceGraphic" in2="effect1_dropShadow_3_848" result="shape"/>
<feColorMatrix in="SourceAlpha" type="matrix" values="0 0 0 0 0 0 0 0 0 0 0 0 0 0 0 0 0 0 127 0" result="hardAlpha"/>
<feOffset dx="-10" dy="-11"/>
<feGaussianBlur stdDeviation="4.5"/>
<feComposite in2="hardAlpha" operator="arithmetic" k2="-1" k3="1"/>
<feColorMatrix type="matrix" values="0 0 0 0 0.0235294 0 0 0 0 0.478431 0 0 0 0 0.27451 0 0 0 0.5 0"/>
<feBlend mode="normal" in2="shape" result="effect2_innerShadow_3_848"/>
<feColorMatrix in="SourceAlpha" type="matrix" values="0 0 0 0 0 0 0 0 0 0 0 0 0 0 0 0 0 0 127 0" result="hardAlpha"/>
<feOffset dx="15" dy="16"/>
<feGaussianBlur stdDeviation="9.5"/>
<feComposite in2="hardAlpha" operator="arithmetic" k2="-1" k3="1"/>
<feColorMatrix type="matrix" values="0 0 0 0 0.0235294 0 0 0 0 0.478431 0 0 0 0 0.27451 0 0 0 0.4 0"/>
<feBlend mode="normal" in2="effect2_innerShadow_3_848" result="effect3_innerShadow_3_848"/>
</filter>
<filter id="filter4_dii_3_848" x="326.376" y="262.299" width="69.4165" height="133.3" filterUnits="userSpaceOnUse" color-interpolation-filters="sRGB">
<feFlood flood-opacity="0" result="BackgroundImageFix"/>
<feColorMatrix in="SourceAlpha" type="matrix" values="0 0 0 0 0 0 0 0 0 0 0 0 0 0 0 0 0 0 127 0" result="hardAlpha"/>
<feOffset dx="6" dy="6"/>
<feGaussianBlur stdDeviation="4"/>
<feComposite in2="hardAlpha" operator="out"/>
<feColorMatrix type="matrix" values="0 0 0 0 0.298039 0 0 0 0 0.631373 0 0 0 0 0.482353 0 0 0 0.4 0"/>
<feBlend mode="normal" in2="BackgroundImageFix" result="effect1_dropShadow_3_848"/>
<feBlend mode="normal" in="SourceGraphic" in2="effect1_dropShadow_3_848" result="shape"/>
<feColorMatrix in="SourceAlpha" type="matrix" values="0 0 0 0 0 0 0 0 0 0 0 0 0 0 0 0 0 0 127 0" result="hardAlpha"/>
<feOffset dx="-1" dy="-13"/>
<feGaussianBlur stdDeviation="4"/>
<feComposite in2="hardAlpha" operator="arithmetic" k2="-1" k3="1"/>
<feColorMatrix type="matrix" values="0 0 0 0 0.294118 0 0 0 0 0.647059 0 0 0 0 0.490196 0 0 0 1 0"/>
<feBlend mode="normal" in2="shape" result="effect2_innerShadow_3_848"/>
<feColorMatrix in="SourceAlpha" type="matrix" values="0 0 0 0 0 0 0 0 0 0 0 0 0 0 0 0 0 0 127 0" result="hardAlpha"/>
<feOffset dx="-2" dy="5"/>
<feGaussianBlur stdDeviation="6.5"/>
<feComposite in2="hardAlpha" operator="arithmetic" k2="-1" k3="1"/>
<feColorMatrix type="matrix" values="0 0 0 0 0 0 0 0 0 0.316667 0 0 0 0 0.174921 0 0 0 1 0"/>
<feBlend mode="normal" in2="effect2_innerShadow_3_848" result="effect3_innerShadow_3_848"/>
</filter>
<clipPath id="clip0_3_848">
<rect width="709.067" height="400" fill="white" transform="translate(0.551758)"/>
</clipPath>
</defs>
</svg>
